<svg width="31" height="31" viewBox="0 0 31 31" fill="none" xmlns="http://www.w3.org/2000/svg">
<circle cx="15.5417" cy="15.6758" r="14.5" fill="white" stroke="white"/>
<path d="M18.8171 15.3465L18.8172 15.3466C19.0007 15.4722 19.0417 15.595 19.0417 15.6754V15.6755C19.0417 15.7544 19.0005 15.8779 18.8157 16.0047C18.8156 16.0047 18.8156 16.0047 18.8156 16.0047C18.8155 16.0048 18.8154 16.0048 18.8153 16.0049L14.3758 19.0427L14.3755 19.0429C14.2206 19.1491 14.1156 19.1703 14.0782 19.1705C14.0662 19.148 14.0417 19.0857 14.0417 18.9594V12.3933C14.0417 12.2659 14.0666 12.2035 14.0786 12.1812C14.0786 12.1812 14.0787 12.1812 14.0788 12.1812C14.1171 12.1812 14.226 12.2034 14.3792 12.3084L14.3794 12.3085L18.8171 15.3465Z" fill="black" stroke="white"/>
</svg>
